<svg width="222" height="158" viewBox="0 0 222 158" fill="none" xmlns="http://www.w3.org/2000/svg">
<path d="M61 50C61 22.3858 83.3858 0 111 0V0C138.614 0 161 22.3858 161 50V50C161 77.6142 138.614 100 111 100V100C83.3858 100 61 77.6142 61 50V50Z" fill="url(#paint0_linear_19_292)"/>
<rect x="71" y="10" width="80" height="80" rx="40" stroke="white" stroke-width="2"/>
<g clipPath="url(#clip0_19_292)">
<path d="M109.418 29.082C109.058 29.1787 108.425 29.4248 108.012 29.627C107.405 29.9258 107.106 30.1543 106.43 30.8398C105.744 31.5166 105.516 31.8154 105.217 32.4219C104.698 33.459 104.496 34.3379 104.496 35.498C104.496 36.6582 104.698 37.5371 105.217 38.5742C105.516 39.1807 105.744 39.4795 106.43 40.1563C107.106 40.8418 107.405 41.0703 108.012 41.3691C109.049 41.8877 109.928 42.0898 111.088 42.0898C112.248 42.0898 113.127 41.8877 114.164 41.3691C114.771 41.0703 115.069 40.8418 115.746 40.1563C116.432 39.4795 116.66 39.1807 116.959 38.5742C117.478 37.5371 117.68 36.6582 117.68 35.498C117.68 34.3379 117.478 33.459 116.959 32.4219C116.66 31.8154 116.432 31.5166 115.746 30.8398C115.069 30.1543 114.771 29.9258 114.164 29.627C113.751 29.4248 113.101 29.1787 112.723 29.082C111.791 28.8447 110.332 28.8535 109.418 29.082ZM112.494 31.877C113.461 32.2637 114.313 33.1162 114.709 34.0918C114.999 34.7861 114.999 36.21 114.709 36.9043C114.313 37.8799 113.47 38.7236 112.494 39.1191C111.791 39.4092 110.376 39.4092 109.664 39.1191C108.697 38.7324 107.854 37.8799 107.476 36.9307C107.203 36.2363 107.15 35.0674 107.353 34.4258C107.783 33.1338 108.557 32.3076 109.787 31.8418C110.517 31.5693 111.747 31.5781 112.494 31.877Z" fill="white"/>
<path d="M118.866 42.2564C117.056 42.7838 115.649 44.2252 115.184 46.0182C115.104 46.317 115.043 46.9147 115.043 47.3629C115.043 47.8111 115.104 48.4088 115.184 48.7076C115.658 50.5357 117.144 52.0211 118.972 52.4957C119.666 52.6803 120.976 52.6715 121.67 52.4957C123.454 52.0387 124.992 50.5006 125.449 48.7164C125.634 48.0133 125.634 46.7125 125.449 46.0094C124.992 44.2252 123.454 42.6871 121.67 42.2301C120.94 42.0455 119.552 42.0543 118.866 42.2564ZM121.327 45.025C121.969 45.3238 122.294 45.6314 122.593 46.2379C123.234 47.5211 122.742 48.9977 121.441 49.6393C119.736 50.4918 117.768 49.2701 117.768 47.3453C117.768 46.8619 117.812 46.6686 118.058 46.2115C118.356 45.6227 118.945 45.0865 119.473 44.9195C119.991 44.7525 120.853 44.7965 121.327 45.025Z" fill="white"/>
<path d="M89.0801 47.5301C88.9482 47.618 88.7549 47.8114 88.667 47.9432C88.5088 48.1893 88.5 48.5409 88.5 57.91C88.5 67.2791 88.5088 67.6307 88.667 67.8768C89.0361 68.4305 89.1416 68.4569 91.2334 68.4569C92.8857 68.4569 93.2109 68.4305 93.6943 68.2811C94.4326 68.0526 95.1006 67.5956 95.5576 66.9979C95.7598 66.743 95.9707 66.5233 96.0146 66.5233C96.0674 66.5233 97.9658 67.4373 100.233 68.5536C102.51 69.6698 104.663 70.6893 105.023 70.8123L105.683 71.0497L112.09 71.076C119.262 71.1024 119.121 71.1112 120.448 70.4872C121.169 70.1444 131.522 63.8075 132.111 63.3416C133.632 62.1551 133.957 59.6502 132.814 57.9979C132.366 57.3563 131.575 56.7674 130.837 56.5213C129.782 56.1786 128.464 56.2928 127.567 56.8114C126.442 57.4618 120.439 60.5467 120.29 60.5467C120.167 60.5467 120.141 60.5116 120.185 60.3885C120.229 60.3094 120.272 59.8612 120.299 59.3866C120.325 58.7362 120.299 58.4373 120.185 58.0682C119.78 56.8202 118.849 55.8709 117.618 55.4403C117.17 55.2909 116.871 55.2733 114.349 55.2733H111.571L108.319 53.1024C106.535 51.9159 104.812 50.8084 104.496 50.6502C103.336 50.0614 102.896 49.9998 99.3809 49.9998H96.2432L96.0762 49.6219C95.6455 48.6727 94.7139 47.8465 93.7119 47.5389C93.2109 47.3895 92.8945 47.3631 91.2334 47.3631C89.5195 47.3631 89.3086 47.3807 89.0801 47.5301ZM93.0791 50.2459C93.2461 50.3426 93.457 50.5623 93.5537 50.7206C93.7295 51.0018 93.7295 51.1688 93.7295 57.91C93.7295 64.6512 93.7295 64.8182 93.5537 65.0995C93.2549 65.5916 92.8945 65.7498 91.9629 65.8026L91.1367 65.8465V57.91V49.9735L91.9629 50.0174C92.5957 50.0526 92.8594 50.1053 93.0791 50.2459ZM102 52.7245C102.343 52.7684 102.844 52.9002 103.099 53.0145C103.362 53.1288 105.138 54.2713 107.045 55.5457L110.517 57.8661L113.593 57.91C116.563 57.954 116.678 57.9627 116.977 58.1473C117.381 58.3934 117.592 58.7713 117.592 59.2284C117.592 59.6854 117.381 60.0633 116.977 60.3094C116.669 60.5028 116.634 60.5028 110.956 60.5467C104.672 60.5995 105.041 60.5643 104.663 61.1356C104.435 61.4784 104.443 62.2342 104.672 62.6122C105.05 63.2274 104.514 63.1922 113.461 63.1659L121.503 63.1395L124.887 61.3553C126.75 60.3709 128.473 59.4481 128.719 59.3075C129.747 58.7274 130.775 59.2196 130.775 60.2918C130.775 60.5028 130.705 60.7752 130.608 60.9334C130.38 61.2938 119.613 67.9471 118.796 68.2284C118.26 68.4129 118.137 68.4129 112.362 68.4129C106.799 68.4129 106.447 68.4041 105.99 68.2459C105.727 68.1493 103.468 67.077 100.98 65.8641L96.4541 63.6493L96.4277 58.1385L96.4102 52.6366H98.8887C100.26 52.6366 101.657 52.6805 102 52.7245Z" fill="white"/>
</g>
<path d="M2.63672 149V122.32H8.32031V149H2.63672ZM13.4961 149V129.684H18.5742V132.164C19.2773 131.344 20.2148 130.647 21.3867 130.074C22.5716 129.488 23.8867 129.195 25.332 129.195C27.4154 129.195 28.9909 129.742 30.0586 130.836C31.1263 131.917 31.6602 133.427 31.6602 135.367V149H26.543V137.32C26.543 136.044 26.2305 135.126 25.6055 134.566C24.9935 134.007 24.1146 133.727 22.9688 133.727C22.0443 133.727 21.2044 133.941 20.4492 134.371C19.694 134.788 19.069 135.315 18.5742 135.953V149H13.4961ZM34.6289 134.117V129.684H37.8125V128.883C37.8125 126.695 38.4115 124.99 39.6094 123.766C40.8203 122.542 42.3828 121.93 44.2969 121.93C45.7812 121.93 47.0117 122.19 47.9883 122.711L46.9336 126.48C46.543 126.207 45.9961 126.07 45.293 126.07C44.5508 126.07 43.9648 126.311 43.5352 126.793C43.1185 127.275 42.9102 127.971 42.9102 128.883V129.684H46.8164V134.117H42.9102V149H37.8125V134.117H34.6289ZM49.7461 149V122.32H54.8242V149H49.7461ZM59.8633 143.395V129.684H64.9414V141.402C64.9414 142.678 65.2474 143.59 65.8594 144.137C66.4714 144.684 67.3503 144.957 68.4961 144.957C69.4076 144.957 70.2474 144.749 71.0156 144.332C71.7839 143.915 72.4154 143.395 72.9102 142.77V129.684H77.9883V149H72.9102V146.559C72.1419 147.392 71.1784 148.089 70.0195 148.648C68.8737 149.208 67.5716 149.488 66.1133 149.488C64.043 149.488 62.4805 148.954 61.4258 147.887C60.3841 146.819 59.8633 145.322 59.8633 143.395ZM83.1445 149V122.32H91.1133L97.5781 139L104.062 122.32H112.07V149H106.348V129.762L98.8281 149H96.3477L88.8281 129.762V149H83.1445ZM117.207 144.391C116.413 142.854 116.016 141.161 116.016 139.312C116.016 137.464 116.413 135.784 117.207 134.273C118.014 132.75 119.199 131.526 120.762 130.602C122.337 129.664 124.154 129.195 126.211 129.195C128.281 129.195 130.104 129.664 131.68 130.602C133.255 131.526 134.44 132.75 135.234 134.273C136.042 135.784 136.445 137.464 136.445 139.312C136.445 141.161 136.042 142.854 135.234 144.391C134.44 145.914 133.255 147.145 131.68 148.082C130.104 149.02 128.281 149.488 126.211 149.488C124.154 149.488 122.337 149.02 120.762 148.082C119.199 147.145 118.014 145.914 117.207 144.391ZM121.289 139.312C121.289 140.901 121.725 142.242 122.598 143.336C123.483 144.417 124.688 144.957 126.211 144.957C127.747 144.957 128.958 144.417 129.844 143.336C130.729 142.255 131.172 140.914 131.172 139.312C131.172 137.737 130.729 136.415 129.844 135.348C128.958 134.267 127.747 133.727 126.211 133.727C124.688 133.727 123.483 134.267 122.598 135.348C121.725 136.415 121.289 137.737 121.289 139.312ZM140.254 149V129.684H145.332V132.164C146.035 131.344 146.973 130.647 148.145 130.074C149.329 129.488 150.645 129.195 152.09 129.195C154.173 129.195 155.749 129.742 156.816 130.836C157.884 131.917 158.418 133.427 158.418 135.367V149H153.301V137.32C153.301 136.044 152.988 135.126 152.363 134.566C151.751 134.007 150.872 133.727 149.727 133.727C148.802 133.727 147.962 133.941 147.207 134.371C146.452 134.788 145.827 135.315 145.332 135.953V149H140.254ZM163.809 126.715C163.223 126.116 162.93 125.4 162.93 124.566C162.93 123.733 163.223 123.023 163.809 122.438C164.408 121.852 165.117 121.559 165.938 121.559C166.784 121.559 167.5 121.852 168.086 122.438C168.685 123.023 168.984 123.733 168.984 124.566C168.984 125.4 168.685 126.116 168.086 126.715C167.5 127.301 166.784 127.594 165.938 127.594C165.117 127.594 164.408 127.301 163.809 126.715ZM163.418 149V129.684H168.496V149H163.418ZM171.367 134.117V129.684H174.57V124.391H179.648V129.684H183.574V134.117H179.648V142.809C179.648 143.434 179.805 143.948 180.117 144.352C180.43 144.755 180.859 144.957 181.406 144.957C181.771 144.957 182.122 144.898 182.461 144.781C182.799 144.664 183.04 144.521 183.184 144.352L184.258 148.238C183.333 149.072 181.921 149.488 180.02 149.488C178.249 149.488 176.895 149.039 175.957 148.141C175.033 147.229 174.57 145.901 174.57 144.156V134.117H171.367ZM187.012 144.391C186.217 142.854 185.82 141.161 185.82 139.312C185.82 137.464 186.217 135.784 187.012 134.273C187.819 132.75 189.004 131.526 190.566 130.602C192.142 129.664 193.958 129.195 196.016 129.195C198.086 129.195 199.909 129.664 201.484 130.602C203.06 131.526 204.245 132.75 205.039 134.273C205.846 135.784 206.25 137.464 206.25 139.312C206.25 141.161 205.846 142.854 205.039 144.391C204.245 145.914 203.06 147.145 201.484 148.082C199.909 149.02 198.086 149.488 196.016 149.488C193.958 149.488 192.142 149.02 190.566 148.082C189.004 147.145 187.819 145.914 187.012 144.391ZM191.094 139.312C191.094 140.901 191.53 142.242 192.402 143.336C193.288 144.417 194.492 144.957 196.016 144.957C197.552 144.957 198.763 144.417 199.648 143.336C200.534 142.255 200.977 140.914 200.977 139.312C200.977 137.737 200.534 136.415 199.648 135.348C198.763 134.267 197.552 133.727 196.016 133.727C194.492 133.727 193.288 134.267 192.402 135.348C191.53 136.415 191.094 137.737 191.094 139.312ZM210.059 149V129.684H215.137V132.281C215.879 131.396 216.803 130.66 217.91 130.074C219.03 129.488 220.163 129.195 221.309 129.195V134.156C220.957 134.078 220.488 134.039 219.902 134.039C219.043 134.039 218.138 134.26 217.188 134.703C216.237 135.133 215.553 135.647 215.137 136.246V149H210.059Z" fill="white"/>
<defs>
<linearGradient id="paint0_linear_19_292" x1="61" y1="100" x2="161" y2="0" gradientUnits="userSpaceOnUse">
<stop stop-color="#A283FF"/>
<stop offset="1" stop-color="#FE648E"/>
</linearGradient>
<clipPath id="clip0_19_292">
<rect width="45" height="45" fill="white" transform="translate(88.5 27.5)"/>
</clipPath>
</defs>
</svg>
