<svg width="275" height="49" viewBox="0 0 275 49" fill="none" xmlns="http://www.w3.org/2000/svg">
<path d="M61.32 37H55.64V10.32H61.32V37ZM84.6166 37H79.5366V25.32C79.5366 22.64 78.1366 21.72 75.9766 21.72C73.9766 21.72 72.4166 22.84 71.5766 24V37H66.4966V17.68H71.5766V20.2C72.8166 18.72 75.1766 17.2 78.3366 17.2C82.5766 17.2 84.6166 19.6 84.6166 23.36V37ZM95.9006 37H90.7806V22.12H87.5806V17.68H90.7806V16.64C90.7806 12.44 93.5006 9.92 97.3006 9.92C98.7406 9.92 100.061 10.24 100.981 10.72L99.9406 14.4C99.5406 14.12 98.9806 13.92 98.3006 13.92C96.8606 13.92 95.9006 14.88 95.9006 16.64V17.68H99.8206V22.12H95.9006V37ZM107.821 37H102.741V10.32H107.821V37ZM130.984 37H125.904V34.56C124.584 36.04 122.264 37.48 119.104 37.48C114.864 37.48 112.864 35.16 112.864 31.4V17.68H117.944V29.4C117.944 32.08 119.344 32.96 121.504 32.96C123.464 32.96 125.024 31.88 125.904 30.76V17.68H130.984V37ZM165.068 37H159.348V18.32L151.828 37H149.348L141.828 18.32V37H136.148V10.32H144.108L150.588 26.44L157.068 10.32H165.068V37ZM179.207 37.48C172.847 37.48 169.007 32.84 169.007 27.32C169.007 21.84 172.847 17.2 179.207 17.2C185.607 17.2 189.447 21.84 189.447 27.32C189.447 32.84 185.607 37.48 179.207 37.48ZM179.207 32.96C182.367 32.96 184.167 30.36 184.167 27.32C184.167 24.32 182.367 21.72 179.207 21.72C176.047 21.72 174.287 24.32 174.287 27.32C174.287 30.36 176.047 32.96 179.207 32.96ZM211.335 37H206.255V25.32C206.255 22.64 204.855 21.72 202.695 21.72C200.695 21.72 199.135 22.84 198.295 24V37H193.215V17.68H198.295V20.2C199.535 18.72 201.895 17.2 205.055 17.2C209.295 17.2 211.335 19.6 211.335 23.36V37ZM218.899 15.6C217.259 15.6 215.859 14.24 215.859 12.56C215.859 10.88 217.259 9.56 218.899 9.56C220.579 9.56 221.939 10.88 221.939 12.56C221.939 14.24 220.579 15.6 218.899 15.6ZM221.459 37H216.379V17.68H221.459V37ZM232.977 37.48C229.417 37.48 227.497 35.64 227.497 32.2V22.12H224.297V17.68H227.497V12.4H232.617V17.68H236.537V22.12H232.617V30.84C232.617 32.04 233.257 32.96 234.377 32.96C235.137 32.96 235.857 32.68 236.137 32.4L237.217 36.24C236.457 36.92 235.097 37.48 232.977 37.48ZM248.972 37.48C242.612 37.48 238.772 32.84 238.772 27.32C238.772 21.84 242.612 17.2 248.972 17.2C255.372 17.2 259.212 21.84 259.212 27.32C259.212 32.84 255.372 37.48 248.972 37.48ZM248.972 32.96C252.132 32.96 253.932 30.36 253.932 27.32C253.932 24.32 252.132 21.72 248.972 21.72C245.812 21.72 244.052 24.32 244.052 27.32C244.052 30.36 245.812 32.96 248.972 32.96ZM268.061 37H262.981V17.68H268.061V20.32C269.421 18.6 271.821 17.2 274.221 17.2V22.16C273.861 22.08 273.381 22.04 272.821 22.04C271.141 22.04 268.901 23 268.061 24.24V37Z" fill="#473972"/>
<path d="M0 24C0 12.9543 8.95431 4 20 4C31.0457 4 40 12.9543 40 24C40 35.0457 31.0457 44 20 44C8.95431 44 0 35.0457 0 24Z" fill="url(#paint0_linear_435_5936)"/>
<rect x="4" y="8" width="32" height="32" rx="16" stroke="white" stroke-width="2"/>
<g clip-path="url(#clip0_435_5936)">
<path d="M19.3672 15.6328C19.223 15.6715 18.9699 15.7699 18.8047 15.8508C18.5621 15.9703 18.4426 16.0617 18.1719 16.3359C17.8977 16.6066 17.8062 16.7262 17.6867 16.9688C17.4793 17.3836 17.3984 17.7352 17.3984 18.1992C17.3984 18.6633 17.4793 19.0148 17.6867 19.4297C17.8062 19.6723 17.8977 19.7918 18.1719 20.0625C18.4426 20.3367 18.5621 20.4281 18.8047 20.5477C19.2195 20.7551 19.5711 20.8359 20.0352 20.8359C20.4992 20.8359 20.8508 20.7551 21.2656 20.5477C21.5082 20.4281 21.6277 20.3367 21.8984 20.0625C22.1727 19.7918 22.2641 19.6723 22.3836 19.4297C22.591 19.0148 22.6719 18.6633 22.6719 18.1992C22.6719 17.7352 22.591 17.3836 22.3836 16.9688C22.2641 16.7262 22.1727 16.6066 21.8984 16.3359C21.6277 16.0617 21.5082 15.9703 21.2656 15.8508C21.1004 15.7699 20.8402 15.6715 20.6891 15.6328C20.3164 15.5379 19.7328 15.5414 19.3672 15.6328ZM20.5977 16.7508C20.9844 16.9055 21.3254 17.2465 21.4836 17.6367C21.5996 17.9145 21.5996 18.484 21.4836 18.7617C21.3254 19.152 20.9879 19.4895 20.5977 19.6477C20.3164 19.7637 19.7504 19.7637 19.4656 19.6477C19.0789 19.493 18.7414 19.152 18.5902 18.7723C18.4812 18.4945 18.4602 18.027 18.541 17.7703C18.7133 17.2535 19.0227 16.923 19.5148 16.7367C19.8066 16.6277 20.2988 16.6313 20.5977 16.7508Z" fill="white"/>
<path d="M23.1465 20.9027C22.4223 21.1137 21.8598 21.6902 21.6734 22.4074C21.6418 22.5269 21.6172 22.766 21.6172 22.9453C21.6172 23.1246 21.6418 23.3637 21.6734 23.4832C21.8633 24.2144 22.4574 24.8086 23.1887 24.9984C23.4664 25.0723 23.9902 25.0687 24.268 24.9984C24.9816 24.8156 25.5969 24.2004 25.7797 23.4867C25.8535 23.2055 25.8535 22.6851 25.7797 22.4039C25.5969 21.6902 24.9816 21.075 24.268 20.8922C23.9762 20.8184 23.4207 20.8219 23.1465 20.9027ZM24.1309 22.0101C24.3875 22.1297 24.5176 22.2527 24.6371 22.4953C24.8938 23.0086 24.6969 23.5992 24.1766 23.8559C23.4945 24.1969 22.707 23.7082 22.707 22.9383C22.707 22.7449 22.7246 22.6676 22.823 22.4848C22.9426 22.2492 23.1781 22.0348 23.3891 21.968C23.5965 21.9012 23.941 21.9187 24.1309 22.0101Z" fill="white"/>
<path d="M11.232 23.0121C11.1793 23.0473 11.102 23.1246 11.0668 23.1774C11.0035 23.2758 11 23.4164 11 27.1641C11 30.9118 11.0035 31.0524 11.0668 31.1508C11.2145 31.3723 11.2566 31.3828 12.0934 31.3828C12.7543 31.3828 12.8844 31.3723 13.0777 31.3125C13.373 31.2211 13.6402 31.0383 13.823 30.7993C13.9039 30.6973 13.9883 30.6094 14.0059 30.6094C14.027 30.6094 14.7863 30.975 15.6934 31.4215C16.6039 31.868 17.4652 32.2758 17.6094 32.325L17.873 32.42L20.4359 32.4305C23.3047 32.4411 23.2484 32.4446 23.7793 32.195C24.0676 32.0578 28.209 29.5231 28.4445 29.3368C29.0527 28.8621 29.1828 27.8602 28.7258 27.1993C28.5465 26.9426 28.2301 26.7071 27.9348 26.6086C27.5129 26.4715 26.9855 26.5172 26.627 26.7246C26.177 26.9848 23.7758 28.2188 23.716 28.2188C23.6668 28.2188 23.6562 28.2047 23.6738 28.1555C23.6914 28.1239 23.709 27.9446 23.7195 27.7547C23.7301 27.4946 23.7195 27.375 23.6738 27.2274C23.5121 26.7282 23.1395 26.3485 22.6473 26.1762C22.468 26.1164 22.3484 26.1094 21.3395 26.1094H20.2285L18.9277 25.2411C18.2141 24.7664 17.525 24.3235 17.3984 24.2602C16.9344 24.0246 16.7586 24 15.3523 24H14.0973L14.0305 23.8489C13.8582 23.4692 13.4855 23.1387 13.0848 23.0157C12.8844 22.9559 12.7578 22.9453 12.0934 22.9453C11.4078 22.9453 11.3234 22.9524 11.232 23.0121ZM12.8316 24.0985C12.8984 24.1371 12.9828 24.225 13.0215 24.2883C13.0918 24.4008 13.0918 24.4676 13.0918 27.1641C13.0918 29.8606 13.0918 29.9274 13.0215 30.0399C12.902 30.2368 12.7578 30.3 12.3852 30.3211L12.0547 30.3387V27.1641V23.9895L12.3852 24.0071C12.6383 24.0211 12.7437 24.0422 12.8316 24.0985ZM16.4 25.0899C16.5371 25.1075 16.7375 25.1602 16.8395 25.2059C16.9449 25.2516 17.6551 25.7086 18.418 26.2184L19.8066 27.1465L21.0371 27.1641C22.2254 27.1817 22.2711 27.1852 22.3906 27.259C22.5523 27.3575 22.6367 27.5086 22.6367 27.6914C22.6367 27.8743 22.5523 28.0254 22.3906 28.1239C22.2676 28.2012 22.2535 28.2012 19.9824 28.2188C17.4688 28.2399 17.6164 28.2258 17.4652 28.4543C17.3738 28.5914 17.3773 28.8938 17.4688 29.045C17.6199 29.2911 17.4055 29.277 20.9844 29.2664L24.2012 29.2559L25.5547 28.5422C26.3 28.1485 26.9891 27.7793 27.0875 27.7231C27.4988 27.4911 27.9102 27.6879 27.9102 28.1168C27.9102 28.2012 27.882 28.3102 27.8434 28.3735C27.752 28.5176 23.4453 31.1789 23.1184 31.2914C22.9039 31.3653 22.8547 31.3653 20.5449 31.3653C18.3195 31.3653 18.1789 31.3618 17.9961 31.2985C17.8906 31.2598 16.9871 30.8309 15.9922 30.3457L14.1816 29.4598L14.1711 27.2555L14.1641 25.0547H15.1555C15.7039 25.0547 16.2629 25.0723 16.4 25.0899Z" fill="white"/>
</g>
<defs>
<linearGradient id="paint0_linear_435_5936" x1="0" y1="44" x2="40" y2="4" gradientUnits="userSpaceOnUse">
<stop stop-color="#A283FF"/>
<stop offset="1" stop-color="#FE648E"/>
</linearGradient>
<clipPath id="clip0_435_5936">
<rect width="18" height="18" fill="white" transform="translate(11 15)"/>
</clipPath>
</defs>
</svg>
